<?xml version="1.0" encoding="utf-8"?>
<!-- Generator: Adobe Illustrator 21.0.0, SVG Export Plug-In . SVG Version: 6.00 Build 0)  -->
<svg version="1.1" id="图层_1" xmlns="http://www.w3.org/2000/svg" xmlns:xlink="http://www.w3.org/1999/xlink" x="0px" y="0px"
	 viewBox="0 0 100 100" style="enable-background:new 0 0 100 100;" xml:space="preserve">
<style type="text/css">
	.st0{display:none;}
	.st1{fill:#004990;}
	.st2{fill:#FFFFFF;}
	.st3{fill:#EF3E42;}
</style>
<g>
	<path class="st0" d="M100,50c0,27.6-22.4,50-50,50C22.4,100,0,77.6,0,50C0,22.4,22.4,0,50,0C77.6,0,100,22.4,100,50z"/>
	<g>
		<path class="st1" d="M58.9,1.5v4.9L41.6,17.9h17.3v14.8H41.5l17.4,11.6V50h-8.6L29.3,36v14H14.5V36L0.9,45c-0.2,1.6-0.2,3.3-0.2,5
			c0,27.3,22.1,49.3,49.3,49.3c27.2,0,49.3-22.1,49.3-49.3C99.3,25.8,81.9,5.7,58.9,1.5z M27,85.5l-5.1-5.3l-5.1,5.3l1-7.3l-7.3-0.6
			l6.3-3.8l-4.1-6.1l6.9,2.6l2.2-7l2.3,7l6.9-2.6L27,73.9l6.3,3.8L26,78.2L27,85.5z M79.9,49.2l-2.5-2.6l-2.5,2.6l0.5-3.6l-3.6-0.3
			l3.1-1.8l-2-3l3.4,1.3l1.1-3.4l1.1,3.4l3.4-1.3l-2,3l3.1,1.8l-3.6,0.3L79.9,49.2z M50,0.7c-7.4,0-14.4,1.6-20.7,4.5v9.5L50.4,0.7
			C50.3,0.7,50.1,0.7,50,0.7z"/>
		<polygon class="st2" points="36.9,21 58.9,21 58.9,17.9 41.6,17.9 		"/>
		<polygon class="st2" points="26.2,33.9 26.2,50 29.3,50 29.3,36 		"/>
		<polygon class="st2" points="41.5,32.7 58.9,32.7 58.9,29.6 36.9,29.6 		"/>
		<path class="st2" d="M29.3,14.7V5.2c-1,0.5-2.1,1-3.1,1.6v10L29.3,14.7z"/>
		<path class="st2" d="M17.6,12.8c-0.9,0.7-1.7,1.5-2.5,2.3l2.5,1.7V12.8z"/>
		<path class="st2" d="M5.1,29.6c-0.3,0.6-0.5,1.2-0.8,1.8l2.6-1.8H5.1z"/>
		<polygon class="st2" points="14.5,36 14.5,50 17.6,50 17.6,33.9 		"/>
		<polygon class="st2" points="36.9,29.6 26.2,29.6 26.2,33.9 29.3,36 50.4,50 58.9,50 58.9,49.9 33.2,32.7 39,32.7 58.9,46 
			58.9,44.3 41.5,32.7 		"/>
		<path class="st2" d="M17.6,16.8l-2.5-1.7c-1.8,1.8-3.5,3.8-5,5.9h7.5V16.8z"/>
		<path class="st2" d="M26.2,16.8V21h10.7l4.6-3.1L58.9,6.4V1.5c-0.3-0.1-0.6-0.1-1-0.2l-25,16.6h-3.7v-1.5L52.9,0.8
			c-0.8,0-1.7-0.1-2.5-0.1L29.3,14.7L26.2,16.8z"/>
		<path class="st2" d="M17.6,33.9v-4.3H6.9l-2.6,1.8C3.4,33.7,2.6,36,2,38.5l8.6-5.7h3.8v1.3L1.2,42.9C1.1,43.6,1,44.3,0.9,45
			L14.5,36L17.6,33.9z"/>
		<path class="st3" d="M17.6,29.6v4.3V50h8.6V33.9v-4.3h10.7h22V21h-22H26.2v-4.2v-10c-3.1,1.7-6,3.7-8.6,6.1v4V21h-7.5
			c-2,2.7-3.6,5.6-5,8.6h1.9H17.6z"/>
		<polygon class="st3" points="33.2,32.7 58.9,49.9 58.9,46 39,32.7 		"/>
		<path class="st3" d="M29.3,17.9h3.7l25-16.6c-1.7-0.3-3.3-0.5-5-0.6L29.3,16.5V17.9z"/>
		<path class="st3" d="M14.5,32.7h-3.8L2,38.5c-0.4,1.5-0.6,3-0.9,4.5l13.3-8.9V32.7z"/>
		<polygon class="st2" points="27,73.9 31,67.7 24.2,70.3 21.9,63.3 19.7,70.3 12.8,67.7 16.8,73.9 10.5,77.6 17.8,78.2 16.8,85.5 
			21.9,80.2 27,85.5 26,78.2 33.3,77.6 		"/>
		<polygon class="st2" points="79.9,43.5 81.9,40.5 78.5,41.8 77.4,38.3 76.3,41.8 73,40.5 75,43.5 71.9,45.3 75.4,45.6 74.9,49.2 
			77.4,46.6 79.9,49.2 79.4,45.6 83,45.3 		"/>
	</g>
</g>
</svg>
