<?xml version="1.0" encoding="utf-8"?>
<!-- Generator: Adobe Illustrator 21.0.0, SVG Export Plug-In . SVG Version: 6.00 Build 0)  -->
<svg version="1.1" id="图层_1" xmlns="http://www.w3.org/2000/svg" xmlns:xlink="http://www.w3.org/1999/xlink" x="0px" y="0px"
	 viewBox="0 0 100 100" style="enable-background:new 0 0 100 100;" xml:space="preserve">
<style type="text/css">
	.st0{display:none;}
	.st1{fill:#E31937;}
	.st2{fill:#FFFFFF;}
</style>
<g>
	<circle class="st0" cx="50" cy="50" r="50"/>
	<g>
		<path class="st1" d="M0.7,50c0,16.1,7.8,30.5,19.7,39.5v-79C8.4,19.5,0.7,33.9,0.7,50z"/>
		<path class="st1" d="M99.4,50c0-16.1-7.8-30.5-19.7-39.5v79C91.6,80.5,99.4,66.2,99.4,50z"/>
		<path class="st2" d="M20.4,10.5v79c8.3,6.2,18.5,9.9,29.6,9.9c11.1,0,21.4-3.7,29.6-9.9v-79C71.4,4.3,61.1,0.7,50,0.7
			C38.9,0.7,28.7,4.3,20.4,10.5z"/>
		<path class="st1" d="M50,78.8h1l-0.3-13.4c0-0.4,0.6-0.8,0.9-0.8c4.2,0.5,8,1,12.2,1.5l-1.1-3.7c-0.2-0.6,0.1-1.4,0.6-1.7
			l12.2-10.4L73,49c-1.1-0.4-0.8-1.1-0.4-2.6l1.9-7.1l-7.1,1.6c-0.7,0.1-1.2-0.4-1.3-0.8l-0.9-3.3l-5.6,6.6c-0.8,1-2.4,1-1.9-1.4
			l2.4-13.3l-3.2,1.7c-0.9,0.5-1.8,0.6-2.3-0.3L50,21.2l-4.5,8.7c-0.5,0.9-1.4,0.9-2.3,0.3L40,28.5l2.4,13.3
			c0.5,2.4-1.1,2.4-1.9,1.4l-5.6-6.6L33.9,40c-0.1,0.4-0.6,0.9-1.3,0.8l-7.1-1.6l1.9,7.1c0.4,1.6,0.7,2.2-0.4,2.6l-2.5,1.2
			l12.2,10.4c0.5,0.4,0.7,1.1,0.6,1.7L36.2,66c4.2-0.5,8-1,12.2-1.5c0.4,0,0.9,0.4,0.9,0.8L49,78.8H50z"/>
	</g>
</g>
</svg>
