<?xml version="1.0" encoding="utf-8"?>
<!-- Generator: Adobe Illustrator 21.0.0, SVG Export Plug-In . SVG Version: 6.00 Build 0)  -->
<svg version="1.1" id="图层_1" xmlns="http://www.w3.org/2000/svg" xmlns:xlink="http://www.w3.org/1999/xlink" x="0px" y="0px"
	 viewBox="0 0 100 100" style="enable-background:new 0 0 100 100;" xml:space="preserve">
<style type="text/css">
	.st0{fill:#DD290E;}
	.st1{fill:#FF0000;}
	.st2{fill:#FFFFFF;}
</style>
<g>
	<g>
		<circle class="st0" cx="50.1" cy="50.1" r="49.9"/>
		<g>
			<ellipse class="st1" cx="48.8" cy="50.6" rx="0.7" ry="0.7"/>
			<path class="st2" d="M48.8,50.6c-6.8-2.7-10-11.3-7.2-18c1.5-3.7,7.3-8.8,14.3-7c-2.7,1.4-4.5,3.2-2.8,5.9c1.9,2.9,1,7.3-2.7,9.1
				C47.4,41.9,44.9,47,48.8,50.6z"/>
			<g>
				<path class="st1" d="M48.6,50.7c-1.4-1.2-3.7-2.4-4.3-7l0,0c-0.1-0.5-0.1-1-0.1-1.5l0,0c0-3.7,1.8-5.9,1.8-5.9l0,0l0,0
					c0.1-0.1,0.2-0.1,0.2,0l0,0c0.1,0.1,0.1,0.2,0,0.2l0,0c0,0-0.4,0.5-0.9,1.5l0,0c-0.4,1-0.9,2.4-0.9,4.2l0,0c0,0.5,0,0.9,0.1,1.4
					l0,0c0.6,4.5,2.7,5.6,4.2,6.8l0,0c0.1,0.1,0.1,0.2,0,0.2l0,0c0,0-0.1,0.1-0.1,0.1l0,0C48.7,50.7,48.7,50.7,48.6,50.7L48.6,50.7z
					"/>
				<polygon class="st1" points="46.6,32.3 47.8,33.3 49.1,32.5 48.5,33.9 49.7,35 48.1,34.8 47.5,36.3 47.1,34.7 45.6,34.6 
					46.9,33.8 				"/>
			</g>
			<path class="st2" d="M48.8,50.6c0.5-7.3,7.7-13,15-12.4c4,0.3,10.6,4.2,11.1,11.4c-2.1-2.2-4.5-3.3-6.5-0.8
				c-2.2,2.7-6.7,3.2-9.5,0.2C56.6,46.6,51,45.7,48.8,50.6z"/>
			<g>
				<path class="st1" d="M48.6,50.5c0.7-1.7,1.1-4.3,5.4-6.2l0,0c0.5-0.2,0.9-0.4,1.4-0.5l0,0c3.6-1.2,6.2-0.1,6.2-0.1l0,0l0,0
					c0.1,0,0.1,0.1,0.1,0.2l0,0c0,0.1-0.1,0.1-0.2,0.1l0,0c0,0-0.6-0.3-1.7-0.4l0,0c-1.1-0.1-2.6-0.1-4.3,0.5l0,0
					c-0.4,0.1-0.9,0.3-1.3,0.5l0,0c-4.1,1.9-4.5,4.3-5.2,6.1l0,0c0,0.1-0.1,0.1-0.2,0.1l0,0c0,0-0.1-0.1-0.1-0.1l0,0
					C48.6,50.6,48.6,50.5,48.6,50.5L48.6,50.5z"/>
				<polygon class="st1" points="65.5,42.9 64.9,44.3 66.1,45.4 64.5,45.2 63.9,46.6 63.5,45.1 62,45 63.3,44.2 63,42.7 64.2,43.7 
									"/>
			</g>
			<path class="st2" d="M48.8,50.6c7.1-1.7,14.7,3.3,16.4,10.4c0.9,3.9-0.8,11.4-7.5,14c1.4-2.7,1.8-5.3-1.2-6.4
				c-3.3-1.2-5.1-5.4-3.1-9C54.9,56.8,54,51.2,48.8,50.6z"/>
			<g>
				<path class="st1" d="M48.8,50.4c1.8,0.1,4.4-0.2,7.6,3.2l0,0c0.4,0.4,0.7,0.8,0.9,1.1l0,0c2.2,3.1,2,5.9,2,5.9l0,0l0,0
					c0,0.1-0.1,0.2-0.2,0.2l0,0c-0.1,0-0.2-0.1-0.1-0.2l0,0c0,0,0-0.7-0.2-1.7l0,0c-0.2-1-0.7-2.5-1.7-3.9l0,0
					c-0.3-0.4-0.6-0.7-0.9-1.1l0,0c-3.1-3.4-5.5-3-7.4-3.1l0,0c-0.1,0-0.2-0.1-0.2-0.2l0,0c0-0.1,0-0.1,0.1-0.1l0,0
					C48.7,50.4,48.7,50.4,48.8,50.4L48.8,50.4z"/>
				<polygon class="st1" points="61.2,64.2 59.6,64 59,65.4 58.7,63.9 57.1,63.7 58.5,63 58.1,61.4 59.3,62.5 60.7,61.7 60,63.1 
									"/>
			</g>
			<path class="st2" d="M48.8,50.6c3.8,6.2,1.4,15-4.9,18.8c-3.4,2.1-11.1,2.8-15.7-2.8c3,0.5,5.6,0.1,5.7-3.1
				c0.2-3.5,3.5-6.5,7.6-5.7C44.7,58.3,49.8,55.8,48.8,50.6z"/>
			<g>
				<path class="st1" d="M48.9,50.5c0.5,1.8,1.6,4.1-0.7,8.2l0,0c-0.2,0.5-0.5,0.9-0.8,1.3l0,0c-2.2,3-5,3.7-5,3.7l0,0l0,0
					c-0.1,0-0.2,0-0.2-0.1l0,0c0-0.1,0-0.2,0.1-0.2l0,0c0,0,0.6-0.1,1.6-0.7l0,0c0.9-0.5,2.1-1.4,3.2-2.9l0,0
					c0.3-0.4,0.5-0.8,0.8-1.2l0,0c2.2-4,1.2-6.1,0.7-8l0,0c0-0.1,0-0.2,0.1-0.2l0,0C48.8,50.4,48.8,50.4,48.9,50.5L48.9,50.5
					C48.9,50.5,48.9,50.5,48.9,50.5L48.9,50.5z"/>
				<polygon class="st1" points="39.6,66.6 39.3,65 37.8,64.9 39.1,64.1 38.8,62.6 39.9,63.6 41.3,62.8 40.7,64.3 41.8,65.3 
					40.3,65.1 				"/>
			</g>
			<path class="st2" d="M48.8,50.6c-4.8,5.6-13.9,5.9-19.4,1.1c-3-2.6-6-9.7-2.1-15.8c0.4,3,1.6,5.3,4.7,4.5
				c3.4-0.9,7.3,1.4,7.8,5.5C40.1,49.1,44.1,53.1,48.8,50.6z"/>
			<g>
				<path class="st1" d="M48.8,50.7c-1.5,1-3.5,2.8-8,1.8l0,0c-0.5-0.1-1-0.2-1.4-0.4l0,0c-3.6-1.2-5-3.6-5-3.6l0,0v0
					c0-0.1,0-0.2,0.1-0.2l0,0c0.1,0,0.2,0,0.2,0.1l0,0c0,0,0.3,0.6,1.1,1.3l0,0c0.8,0.7,2,1.6,3.7,2.2l0,0c0.4,0.1,0.9,0.3,1.4,0.4
					l0,0c4.5,0.9,6.2-0.8,7.8-1.8l0,0c0.1,0,0.2,0,0.2,0.1l0,0C48.9,50.5,48.9,50.6,48.8,50.7L48.8,50.7
					C48.9,50.7,48.9,50.7,48.8,50.7L48.8,50.7z"/>
				<polygon class="st1" points="30.7,46.8 32.1,46 31.8,44.5 32.9,45.5 34.3,44.8 33.6,46.2 34.8,47.2 33.2,47.1 32.6,48.5 
					32.3,46.9 				"/>
			</g>
		</g>
	</g>
</g>
</svg>
