<?xml version="1.0" encoding="utf-8"?>
<!-- Generator: Adobe Illustrator 21.0.0, SVG Export Plug-In . SVG Version: 6.00 Build 0)  -->
<svg version="1.1" id="图层_1" xmlns="http://www.w3.org/2000/svg" xmlns:xlink="http://www.w3.org/1999/xlink" x="0px" y="0px"
	 viewBox="0 0 100 100" style="enable-background:new 0 0 100 100;" xml:space="preserve">
<style type="text/css">
	.st0{display:none;}
	.st1{fill:#003399;}
	.st2{fill:#FFCC00;}
</style>
<g>
	<circle class="st0" cx="50.1" cy="50.1" r="50.1"/>
	<g>
		<circle class="st1" cx="50.1" cy="50.1" r="49.4"/>
		<g>
			<polygon class="st2" points="50.1,17.1 51,20.1 54.2,20.1 51.6,22 52.6,25 50.1,23.1 47.5,25 48.5,22 46,20.1 49.1,20.1 			"/>
			<polygon class="st2" points="35.5,21 36.4,24 39.6,24 37,25.9 38,28.9 35.5,27 32.9,28.9 33.9,25.9 31.4,24 34.5,24 			"/>
			<polygon class="st2" points="24.8,31.8 25.8,34.8 28.9,34.8 26.4,36.6 27.3,39.6 24.8,37.8 22.3,39.6 23.2,36.6 20.7,34.8 
				23.8,34.8 			"/>
			<polygon class="st2" points="64.6,21.1 65.6,24.1 68.7,24.1 66.2,25.9 67.2,28.9 64.7,27.1 62.1,28.9 63.1,25.9 60.5,24.1 
				63.7,24.1 			"/>
			<polygon class="st2" points="79,34.5 76.5,36.4 77.4,39.4 74.9,37.5 72.4,39.4 73.3,36.4 70.8,34.5 73.9,34.5 74.9,31.5 
				75.9,34.5 			"/>
			<polygon class="st2" points="83,49.3 80.5,51.1 81.4,54.1 78.9,52.2 76.4,54.1 77.3,51.1 74.8,49.2 77.9,49.2 78.9,46.3 
				79.9,49.3 			"/>
			<polygon class="st2" points="77.7,68.2 75.1,66.4 72.6,68.3 73.6,65.3 71,63.4 74.2,63.4 75.1,60.4 76.1,63.4 79.2,63.4 
				76.7,65.3 			"/>
			<polygon class="st2" points="47.8,83 48.8,80 46.2,78.2 49.4,78.2 50.3,75.2 51.3,78.2 54.4,78.2 51.9,80 52.9,83 50.3,81.2 			
				"/>
			<polygon class="st2" points="33.2,79.1 34.1,76.1 31.6,74.3 34.7,74.3 35.7,71.3 36.7,74.3 39.8,74.3 37.3,76.1 38.2,79.1 
				35.7,77.3 			"/>
			<polygon class="st2" points="67,79 64.5,77.2 61.9,79 62.9,76 60.4,74.2 63.5,74.2 64.5,71.2 65.4,74.2 68.6,74.2 66,76.1 			"/>
			<polygon class="st2" points="17.1,49.3 20.3,49.3 21.2,46.3 22.2,49.3 25.3,49.3 22.8,51.2 23.8,54.2 21.2,52.3 18.7,54.2 
				19.7,51.2 			"/>
			<polygon class="st2" points="22.5,68.2 23.5,65.2 20.9,63.4 24.1,63.4 25,60.4 26,63.4 29.1,63.4 26.6,65.2 27.6,68.2 25,66.4 
							"/>
		</g>
	</g>
</g>
</svg>
