<?xml version="1.0" encoding="utf-8"?>
<!-- Generator: Adobe Illustrator 21.0.0, SVG Export Plug-In . SVG Version: 6.00 Build 0)  -->
<svg version="1.1" id="图层_1" xmlns="http://www.w3.org/2000/svg" xmlns:xlink="http://www.w3.org/1999/xlink" x="0px" y="0px"
	 viewBox="0 0 100 100" style="enable-background:new 0 0 100 100;" xml:space="preserve">
<style type="text/css">
	.st0{fill:#FFFFFF;}
	.st1{fill:#004590;}
	.st2{fill:#CC353F;}
</style>
<g>
	<path class="st0" d="M0.9,59.7c0.5,2.5,1.1,4.9,2,7.2h4.1L3.7,69c1.2,2.9,2.7,5.7,4.4,8.4l16.2-10.5H36L12,82.4
		c0.7,0.8,1.4,1.6,2.2,2.4l22.2-14.5v27.7c1.9,0.6,3.9,1,6,1.3V59.7H0.9L0.9,59.7z M57.9,99.4c2-0.3,4-0.8,6-1.3V70.7l22,14.3
		c2.3-2.3,4.3-4.8,6.1-7.5L75.5,66.8h11.7l7.9,5.1c0.4-0.9,0.9-1.8,1.2-2.7l-3.7-2.4h4.6c0.8-2.3,1.5-4.7,2-7.2H57.9V99.4L57.9,99.4
		z M42.3,0.4c-2,0.3-4,0.8-6,1.3V30L13.8,15.4c-2.1,2.2-4,4.7-5.7,7.2l16,10.4H12.4L5,28.1c-0.5,1-1,2.1-1.4,3.2L6.2,33H2.9
		c-0.8,2.3-1.5,4.7-2,7.2h41.4L42.3,0.4L42.3,0.4z M99.2,40.2c-0.5-2.5-1.1-4.9-2-7.2h-3.7l3-1.9c-1.2-2.9-2.7-5.7-4.4-8.4L76.3,33
		H64.6l23.7-15.4c-0.7-0.8-1.4-1.6-2.2-2.4L63.8,29.7v-28c-1.9-0.6-3.9-1-6-1.3v39.7H99.2L99.2,40.2z"/>
	<path class="st1" d="M2.9,66.8c0.3,0.7,0.5,1.4,0.8,2.1l3.3-2.1H2.9L2.9,66.8z M3.6,31.3c-0.2,0.6-0.4,1.1-0.6,1.7h3.3L3.6,31.3
		L3.6,31.3z M86.2,15.2c-6-6.3-13.7-11-22.3-13.4v28L86.2,15.2L86.2,15.2z M36.3,1.7C27.6,4.2,19.9,9,13.8,15.4L36.3,30V1.7
		L36.3,1.7z M14.2,84.8c6,6.2,13.6,10.9,22.2,13.3V70.3L14.2,84.8L14.2,84.8z M97.3,33c-0.2-0.7-0.5-1.3-0.7-1.9l-3,1.9H97.3
		L97.3,33z M63.8,98.1c8.5-2.4,16-7,22-13.1l-22-14.3V98.1L63.8,98.1z M96.3,69.2c0.3-0.8,0.6-1.6,0.9-2.4h-4.6L96.3,69.2L96.3,69.2
		z"/>
	<path class="st2" d="M57.9,99.4V59.7h41.4c0.6-3.2,0.9-6.4,0.9-9.7c0-3.3-0.3-6.6-0.9-9.7H57.9V0.4c-2.4-0.4-4.9-0.6-7.4-0.6h-0.7
		c-2.5,0-5,0.2-7.4,0.6v39.7H0.9C0.3,43.3,0,46.6,0,49.9c0,3.3,0.3,6.6,0.9,9.7h41.4v39.7c2.4,0.4,4.9,0.6,7.4,0.6h0.7
		C53,100,55.4,99.8,57.9,99.4L57.9,99.4z"/>
	<path class="st2" d="M75.5,66.8l16.4,10.7c1.2-1.8,2.2-3.6,3.2-5.5l-7.9-5.1H75.5L75.5,66.8z M76.3,33l15.8-10.3
		c-1.2-1.8-2.4-3.5-3.8-5.1L64.6,33H76.3L76.3,33z M24.1,33l-16-10.4c-1.2,1.8-2.2,3.6-3.1,5.6l7.4,4.9L24.1,33L24.1,33z M24.3,66.8
		L8.2,77.3c1.2,1.8,2.5,3.5,3.8,5.1l24-15.6L24.3,66.8L24.3,66.8L24.3,66.8z"/>
</g>
<image style="overflow:visible;" width="3976" height="1240" xlink:href="../../Library/Containers/com.tencent.xinWeChat/Data/Library/Application Support/com.tencent.xinWeChat/2.0b4.0.9/808d6ae78a6e61ea854b1ad72a0d218b/Message/MessageTemp/e0ac421942ce3b3dab5fbee383676dbf/Image/39691521738259_.pic_hd.jpg"  transform="matrix(0.5 0 0 0.5 3389.7 -1701.6001)">
</image>
</svg>
