<?xml version="1.0" encoding="utf-8"?>
<!-- Generator: Adobe Illustrator 21.0.0, SVG Export Plug-In . SVG Version: 6.00 Build 0)  -->
<svg version="1.1" id="图层_1" xmlns="http://www.w3.org/2000/svg" xmlns:xlink="http://www.w3.org/1999/xlink" x="0px" y="0px"
	 viewBox="0 0 100 100" style="enable-background:new 0 0 100 100;" xml:space="preserve">
<style type="text/css">
	.st0{display:none;}
	.st1{fill:#FFFFFF;}
	.st2{fill:#DC241F;}
	.st3{fill:#0050A2;}
	.st4{fill:#FDD400;}
</style>
<g>
	<ellipse class="st0" cx="50" cy="50" rx="50" ry="50"/>
	<g>
		<path class="st1" d="M23.7,91.8h52.6c3.4-2.1,6.5-4.7,9.3-7.6H14.4C17.2,87,20.3,89.6,23.7,91.8z"/>
		<g>
			<path class="st1" d="M2,61.4h96c0.6-2.5,1-5,1.2-7.6H0.8C1,56.4,1.4,58.9,2,61.4z"/>
			<path class="st1" d="M8.4,76.6h83.1c1.5-2.4,2.9-4.9,4-7.6H4.4C5.6,71.6,6.9,74.2,8.4,76.6z"/>
			<path class="st1" d="M76.3,8.3H23.7c-3.4,2.1-6.5,4.7-9.3,7.6h71.2C82.8,13,79.7,10.4,76.3,8.3z"/>
			<g>
				<path class="st2" d="M4.4,69h91.1c1-2.4,1.8-5,2.4-7.6H2C2.6,64,3.4,66.5,4.4,69z"/>
				<path class="st2" d="M14.4,84.2h71.2c2.2-2.3,4.2-4.9,6-7.6H8.4C10.2,79.3,12.2,81.8,14.4,84.2z"/>
				<path class="st2" d="M50,99.3c9.7,0,18.7-2.8,26.3-7.6H23.7C31.3,96.6,40.3,99.3,50,99.3z"/>
				<path class="st2" d="M2,38.6h96c-0.6-2.6-1.4-5.2-2.4-7.6H4.4C3.4,33.5,2.6,36,2,38.6z"/>
				<path class="st2" d="M0.7,50c0,1.3,0.1,2.5,0.2,3.8h98.4c0.1-1.3,0.2-2.5,0.2-3.8c0-1.3-0.1-2.5-0.2-3.8H0.8
					C0.7,47.5,0.7,48.7,0.7,50z"/>
				<path class="st2" d="M14.4,15.8c-2.2,2.3-4.2,4.9-6,7.6h83.1c-1.7-2.7-3.7-5.3-6-7.6H14.4z"/>
				<path class="st2" d="M50,0.7c-9.7,0-18.7,2.8-26.3,7.6h52.6C68.7,3.4,59.7,0.7,50,0.7z"/>
			</g>
			<path class="st1" d="M0.8,46.2h98.4c-0.2-2.6-0.6-5.1-1.2-7.6H2C1.4,41.1,1,43.6,0.8,46.2z"/>
			<path class="st1" d="M4.4,31h91.1c-1.1-2.7-2.5-5.2-4-7.6H8.4C6.9,25.8,5.6,28.4,4.4,31z"/>
			<path class="st3" d="M50,0.7C22.7,0.7,0.7,22.8,0.7,50c0,1.3,0.1,2.6,0.2,3.9H50V0.7z"/>
			<g>
				<path class="st4" d="M26.3,42.7c-6.1,0-11.1-5-11.1-11.1c0-6.1,5-11.1,11.1-11.1c1.8,0,3.5,0.4,5,1.2C29.1,20,26.5,19,23.5,19
					C16.6,19,11,24.6,11,31.6c0,7,5.6,12.6,12.6,12.6c2.9,0,5.6-1,7.7-2.7C29.8,42.2,28.1,42.7,26.3,42.7z"/>
				<polygon class="st4" points="36.2,21 37.1,27.6 40.8,22.1 38.7,28.4 44.4,25 39.8,29.8 46.5,29.2 40.2,31.6 46.5,33.9 
					39.8,33.3 44.4,38.1 38.7,34.7 40.8,41.1 37.1,35.5 36.2,42.1 35.3,35.5 31.6,41.1 33.7,34.7 27.9,38.1 32.6,33.3 25.9,33.9 
					32.2,31.6 25.9,29.2 32.6,29.8 27.9,25 33.7,28.4 31.6,22.1 35.3,27.6 				"/>
			</g>
		</g>
	</g>
</g>
</svg>
