<?xml version="1.0" encoding="utf-8"?>
<!-- Generator: Adobe Illustrator 21.0.0, SVG Export Plug-In . SVG Version: 6.00 Build 0)  -->
<svg version="1.1" id="图层_1" xmlns="http://www.w3.org/2000/svg" xmlns:xlink="http://www.w3.org/1999/xlink" x="0px" y="0px"
	 viewBox="0 0 2834.6 2834.6" style="enable-background:new 0 0 2834.6 2834.6;" xml:space="preserve">
<style type="text/css">
	.st0{fill-rule:evenodd;clip-rule:evenodd;fill:#DE2910;}
	.st1{fill-rule:evenodd;clip-rule:evenodd;fill:#FFDC00;}
</style>
<g>
	<path class="st0" d="M1415.8,2834.6C633.2,2834.6-1.6,2200.1-1.6,1417.3S633.2,0,1415.8,0c782.7,0,1417.3,634.6,1417.3,1417.3
		S2198.5,2834.6,1415.8,2834.6L1415.8,2834.6z"/>
	<path class="st1" d="M697.6,299.9l95,280.6h307.8L850.8,763.4l92.3,278.2L697.8,876.3L452,1041.6l92.3-278.2L296.8,580.5h307.8
		L697.6,299.9L697.6,299.9z M1701,859.7l30.6,90.8h99.9l-81,59.5l29.9,90.1l-79.5-53.6l-79.7,53.6l30.2-90.1l-80.5-59.5h99.9
		L1701,859.7L1701,859.7z M1634.3,445.1l67.8,67.8l89.3-44l-46,88.8l66.7,67.6l-95-12.7l-47.7,83.2l-13.2-94.3l-98-17.4l89.5-44
		L1634.3,445.1L1634.3,445.1z M1308.8,207.4l90.3,33l62.3-78l-4.2,100.1l89.1,33l-91.6,28.4l-7.6,95.7l-51.9-79.7l-96.3,25.7
		l62.3-78L1308.8,207.4L1308.8,207.4z M1308.8,1194.9l90.3,32.8l62.3-77.6l-4.2,99.9l89.1,33l-91.6,28.6l-7.6,95.7l-51.9-79.7
		l-96.3,25.5l62.3-77.6L1308.8,1194.9L1308.8,1194.9z"/>
</g>
</svg>
