<?xml version="1.0" encoding="utf-8"?>
<!-- Generator: Adobe Illustrator 21.0.0, SVG Export Plug-In . SVG Version: 6.00 Build 0)  -->
<svg version="1.1" id="图层_1" xmlns="http://www.w3.org/2000/svg" xmlns:xlink="http://www.w3.org/1999/xlink" x="0px" y="0px"
	 viewBox="0 0 100 100" style="enable-background:new 0 0 100 100;" xml:space="preserve">
<style type="text/css">
	.st0{display:none;}
	.st1{fill:#FFFFFF;}
	.st2{fill:#E31937;}
	.st3{fill:#004990;}
</style>
<g>
	<circle class="st0" cx="50.5" cy="49.8" r="22.2"/>
	<g>
		<path class="st1" d="M74.3,48.7l3.2-2.3l3.2,2.3l-1.2-3.8l3.2-2.3h-4l-1.2-3.8l-1.2,3.8h-4l3.2,2.3L74.3,48.7z M74.1,43.2h2.6
			l0.8-2.5l0.8,2.5h2.6l-2.1,1.5l0.8,2.5l-2.1-1.5l-2.1,1.5l0.8-2.5L74.1,43.2z"/>
		<polygon class="st2" points="75.4,47.2 77.5,45.6 79.6,47.2 78.8,44.7 80.9,43.2 78.3,43.2 77.5,40.6 76.7,43.2 74.1,43.2 
			76.2,44.7 		"/>
		<g>
			<path class="st3" d="M58.9,1.4v4.9L41.6,17.9h17.4v14.8H41.5l17.4,11.6V50h-8.6L29.3,35.9V50H14.4V35.9L0.8,45
				c-0.2,1.6-0.2,3.3-0.2,5l0,0c0,27.3,22.1,49.4,49.4,49.4S99.4,77.3,99.4,50C99.4,25.7,82,5.6,58.9,1.4z M80.7,48.7l-3.2-2.3
				l-3.2,2.3l1.2-3.8l-3.2-2.3h4l1.2-3.8l1.2,3.8h4l-3.2,2.3L80.7,48.7z M50.1,0.6h-0.2c-7.4,0-14.4,1.7-20.6,4.6v9.5L50.4,0.6
				C50.3,0.6,50.2,0.6,50.1,0.6z"/>
			<polygon class="st1" points="26.2,33.9 26.2,50 29.3,50 29.3,35.9 			"/>
			<polygon class="st1" points="41.5,32.7 58.9,32.7 58.9,29.6 36.9,29.6 			"/>
			<polygon class="st1" points="14.4,35.9 14.4,50 17.5,50 17.5,33.9 			"/>
			<path class="st1" d="M29.3,14.7V5.1c-1,0.5-2.1,1-3.1,1.6v10L29.3,14.7z"/>
			<path class="st1" d="M5,29.6c-0.3,0.6-0.5,1.2-0.8,1.8l2.6-1.8H5z"/>
			<polygon class="st1" points="58.9,17.9 41.6,17.9 36.9,20.9 58.9,20.9 			"/>
			<path class="st1" d="M17.5,12.7c-0.9,0.7-1.7,1.5-2.5,2.3l2.5,1.7V12.7z"/>
			<polygon class="st1" points="36.9,29.6 26.2,29.6 26.2,33.9 29.3,35.9 50.4,50 58.9,50 58.9,49.9 33.1,32.7 39,32.7 58.9,46 
				58.9,44.3 41.5,32.7 			"/>
			<path class="st1" d="M17.5,16.7L15,15.1c-1.8,1.8-3.5,3.8-5,5.9h7.5V16.7z"/>
			<path class="st1" d="M26.2,16.7v4.2h10.7l4.6-3.1L58.9,6.3V1.4c-0.3-0.1-0.6-0.1-1-0.2L32.9,17.9h-3.7v-1.5L52.9,0.6
				c-0.8-0.1-1.7-0.1-2.5-0.1L29.3,14.7L26.2,16.7z"/>
			<path class="st1" d="M17.5,33.9v-4.3H6.8l-2.6,1.8c-0.9,2.3-1.7,4.6-2.3,7.1l8.6-5.8h3.9V34L1.1,42.9C1,43.6,0.9,44.3,0.8,45
				l13.6-9.1L17.5,33.9z"/>
			<path class="st2" d="M17.5,29.6v4.3V50h8.6V33.9v-4.3h10.7h22.1v-8.7h-22H26.2v-4.2v-10c-3.1,1.7-6,3.8-8.6,6.1v4v4.2H10
				c-2,2.7-3.6,5.6-5,8.7h1.9H17.5z"/>
			<polygon class="st2" points="33.1,32.7 58.9,49.9 58.9,46 39,32.7 			"/>
			<path class="st2" d="M29.3,17.9h3.7L58,1.2c-1.7-0.3-3.3-0.5-5-0.6L29.3,16.4V17.9z"/>
			<path class="st2" d="M14.4,32.7h-3.9l-8.6,5.8c-0.4,1.5-0.6,3-0.9,4.5L14.4,34V32.7z"/>
		</g>
	</g>
</g>
</svg>
