<?xml version="1.0" encoding="utf-8"?>
<!-- Generator: Adobe Illustrator 21.0.0, SVG Export Plug-In . SVG Version: 6.00 Build 0)  -->
<svg version="1.1" id="图层_1" xmlns="http://www.w3.org/2000/svg" xmlns:xlink="http://www.w3.org/1999/xlink" x="0px" y="0px"
	 viewBox="0 0 100 100" style="enable-background:new 0 0 100 100;" xml:space="preserve">
<style type="text/css">
	.st0{display:none;}
	.st1{fill:#FFFFFF;}
	.st2{fill:#DE1018;}
	.st3{fill:#00247D;}
</style>
<g>
	<ellipse class="st0" cx="50.5" cy="49.6" rx="49.5" ry="49.6"/>
	<g>
		<path class="st1" d="M96.7,65.7H4.2c2.1,6.1,5.3,11.6,9.5,16.3h73.5C91.3,77.3,94.6,71.8,96.7,65.7z"/>
		<path class="st2" d="M50.5,0.8c-14.3,0-27.2,6.2-36.1,16h72.3C77.7,7,64.8,0.8,50.5,0.8z"/>
		<path class="st2" d="M50.4,98c14.3,0,27.2-6.2,36.1-16H14.3C23.2,91.8,36.1,98,50.4,98z"/>
		<path class="st1" d="M86.6,16.8H14.3C10,21.5,6.7,27,4.5,33.1h92C94.2,27,90.9,21.5,86.6,16.8z"/>
		<path class="st3" d="M99.3,49.7c0-5.8-1-11.4-2.9-16.6h-92c-1.9,5.2-2.9,10.8-2.9,16.6c0,5.6,1,11,2.7,16h92.4
			C98.4,60.7,99.3,55.3,99.3,49.7z"/>
	</g>
</g>
</svg>
