<?xml version="1.0" encoding="utf-8"?>
<!-- Generator: Adobe Illustrator 21.0.0, SVG Export Plug-In . SVG Version: 6.00 Build 0)  -->
<svg version="1.1" id="图层_1" xmlns="http://www.w3.org/2000/svg" xmlns:xlink="http://www.w3.org/1999/xlink" x="0px" y="0px"
	 viewBox="0 0 100 100" style="enable-background:new 0 0 100 100;" xml:space="preserve">
<style type="text/css">
	.st0{display:none;}
	.st1{fill:#FFFFFF;}
	.st2{fill:#BF0A30;}
	.st3{fill:#002868;}
</style>
<g>
	<circle class="st0" cx="50" cy="50" r="50"/>
	<g>
		<g>
			<path class="st1" d="M2,61.4h96c0.6-2.5,1-5,1.2-7.6H0.8C1,56.4,1.4,58.9,2,61.4z"/>
			<path class="st1" d="M8.4,76.6h83.1c1.5-2.4,2.9-4.9,4-7.6H4.4C5.6,71.6,6.9,74.2,8.4,76.6z"/>
			<path class="st1" d="M23.7,91.7h52.6c3.4-2.1,6.5-4.7,9.3-7.6H14.4C17.2,87.1,20.3,89.6,23.7,91.7z"/>
			<path class="st1" d="M76.3,8.3H23.7c-3.4,2.1-6.5,4.7-9.3,7.6h71.2C82.8,13,79.7,10.4,76.3,8.3z"/>
			<g>
				<path class="st2" d="M4.4,69h91.1c1-2.4,1.8-5,2.4-7.6H2C2.6,64,3.4,66.5,4.4,69z"/>
				<path class="st2" d="M14.4,84.2h71.2c2.2-2.3,4.2-4.9,6-7.6H8.4C10.2,79.3,12.2,81.8,14.4,84.2z"/>
				<path class="st2" d="M50,99.3c9.7,0,18.7-2.8,26.3-7.6H23.7C31.3,96.6,40.3,99.3,50,99.3z"/>
				<path class="st2" d="M2,38.6h96c-0.6-2.6-1.4-5.2-2.4-7.6H4.4C3.4,33.5,2.6,36,2,38.6z"/>
				<path class="st2" d="M0.7,50c0,1.3,0.1,2.5,0.2,3.8h98.4c0.1-1.3,0.2-2.5,0.2-3.8c0-1.3-0.1-2.5-0.2-3.8H0.8
					C0.7,47.5,0.7,48.7,0.7,50z"/>
				<path class="st2" d="M14.4,15.8c-2.2,2.3-4.2,4.9-6,7.6h83.1c-1.7-2.7-3.7-5.3-6-7.6H14.4z"/>
				<path class="st2" d="M50,0.7c-9.7,0-18.7,2.8-26.3,7.6h52.6C68.7,3.4,59.7,0.7,50,0.7z"/>
			</g>
			<path class="st1" d="M0.8,46.2h98.4c-0.2-2.6-0.6-5.1-1.2-7.6H2C1.4,41.1,1,43.6,0.8,46.2z"/>
			<path class="st1" d="M4.4,31h91.1c-1.1-2.7-2.5-5.2-4-7.6H8.4C6.9,25.8,5.6,28.4,4.4,31z"/>
		</g>
		<g>
			<path class="st3" d="M50,0.7C22.7,0.7,0.7,22.8,0.7,50c0,1.3,0.1,2.6,0.2,3.9H50V0.7z"/>
			<g>
				<path class="st1" d="M3.7,33c-0.1,0.2-0.1,0.4-0.2,0.6h0L3.7,33z"/>
				<path class="st1" d="M3.1,34.6c-0.2,0.5-0.3,1.1-0.5,1.6L3.1,34.6L3.1,34.6z"/>
				<polygon class="st1" points="5.5,51 4.1,49.9 2.6,51 3.1,49.3 1.7,48.2 3.5,48.2 4.1,46.5 4.6,48.2 6.4,48.2 4.9,49.3 				"/>
				<polygon class="st1" points="12.1,43.6 10.7,42.5 9.2,43.6 9.8,41.9 8.3,40.8 10.1,40.8 10.7,39.1 11.2,40.8 13,40.8 11.6,41.9 
									"/>
				<polygon class="st1" points="11.7,26.8 12.2,28.6 10.8,27.5 9.3,28.6 9.9,26.8 8.4,25.8 10.2,25.8 10.8,24.1 11.3,25.8 
					13.1,25.8 				"/>
				<polygon class="st1" points="19,51 17.5,49.9 16.1,51 16.6,49.3 15.2,48.2 17,48.2 17.5,46.5 18.1,48.2 19.9,48.2 18.4,49.3 
									"/>
				<polygon class="st1" points="19.1,34.1 18.4,34.6 19,36.3 17.5,35.3 16.1,36.3 16.6,34.6 16,34.1 15.2,33.5 17,33.5 17.5,31.8 
					18.1,33.5 19.9,33.5 				"/>
				<polygon class="st1" points="18.4,19.2 19,20.9 17.5,19.9 16.1,20.9 16.6,19.2 15.2,18.1 17,18.1 17.5,16.4 18.1,18.1 
					19.9,18.1 				"/>
				<polygon class="st1" points="25.6,44.1 24.1,43.1 22.7,44.1 23.2,42.4 21.8,41.4 23.6,41.4 24.1,39.6 24.7,41.4 26.5,41.4 
					25,42.4 				"/>
				<polygon class="st1" points="25.2,27.4 25.7,29.1 24.3,28 22.8,29.1 23.4,27.4 21.9,26.3 23.7,26.3 24.3,24.6 24.8,26.3 
					26.6,26.3 				"/>
				<polygon class="st1" points="25.3,12.2 25.9,13.9 24.4,12.8 23,13.9 23.5,12.2 22.1,11.1 23.9,11.1 24.4,9.4 25,11.1 26.8,11.1 
									"/>
				<polygon class="st1" points="32.5,51 31,49.9 29.6,51 30.1,49.3 28.7,48.2 30.5,48.2 31,46.5 31.6,48.2 33.4,48.2 31.9,49.3 
									"/>
				<polygon class="st1" points="32.6,34.1 31.9,34.6 32.5,36.3 31,35.3 29.6,36.3 30.1,34.6 29.5,34.1 28.7,33.5 30.5,33.5 
					31,31.8 31.6,33.5 33.4,33.5 				"/>
				<polygon class="st1" points="31.9,19.2 32.5,20.9 31,19.9 29.6,20.9 30.1,19.2 28.7,18.1 30.5,18.1 31,16.4 31.6,18.1 
					33.4,18.1 				"/>
				<polygon class="st1" points="39.1,44.1 37.6,43.1 36.2,44.1 36.7,42.4 35.3,41.4 37.1,41.4 37.6,39.6 38.2,41.4 40,41.4 
					38.5,42.4 				"/>
				<polygon class="st1" points="38.7,27.4 39.2,29.1 37.8,28 36.3,29.1 36.9,27.4 35.4,26.3 37.2,26.3 37.8,24.6 38.3,26.3 
					40.1,26.3 				"/>
				<polygon class="st1" points="38.8,12.2 39.4,13.9 37.9,12.8 36.5,13.9 37,12.2 35.6,11.1 37.3,11.1 37.9,9.4 38.5,11.1 
					40.3,11.1 				"/>
				<polygon class="st1" points="46,51 44.5,49.9 43.1,51 43.6,49.3 42.2,48.2 44,48.2 44.5,46.5 45.1,48.2 46.9,48.2 45.4,49.3 
									"/>
				<polygon class="st1" points="46.1,34.1 45.4,34.6 46,36.3 44.5,35.3 43.1,36.3 43.6,34.6 43,34.1 42.2,33.5 44,33.5 44.5,31.8 
					45.1,33.5 46.9,33.5 				"/>
				<polygon class="st1" points="45.4,19.2 46,20.9 44.5,19.9 43.1,20.9 43.6,19.2 42.2,18.1 44,18.1 44.5,16.4 45.1,18.1 
					46.9,18.1 				"/>
				<polygon class="st1" points="45.4,4.2 46,5.9 44.5,4.8 43.1,5.9 43.6,4.2 42.2,3.1 44,3.1 44.5,1.4 45.1,3.1 46.9,3.1 				"/>
				<path class="st1" d="M31,4.8l1.5,1.1l-0.6-1.7L32.1,4c-0.8,0.3-1.5,0.6-2.3,0.9l-0.3,0.9L31,4.8z"/>
				<polygon class="st1" points="31,16.4 30.5,18.1 28.7,18.1 30.1,19.2 29.6,20.9 31,19.9 32.5,20.9 31.9,19.2 33.4,18.1 
					31.6,18.1 				"/>
				<polygon class="st1" points="31,31.8 30.5,33.5 28.7,33.5 29.5,34.1 30.1,34.6 29.6,36.3 31,35.3 32.5,36.3 31.9,34.6 
					32.6,34.1 33.4,33.5 31.6,33.5 				"/>
				<polygon class="st1" points="31.6,48.2 31,46.5 30.5,48.2 28.7,48.2 30.1,49.3 29.6,51 31,49.9 32.5,51 31.9,49.3 33.4,48.2 
									"/>
				<polygon class="st1" points="17.5,16.4 17,18.1 15.2,18.1 16.6,19.2 16.1,20.9 17.5,19.9 19,20.9 18.4,19.2 19.9,18.1 
					18.1,18.1 				"/>
				<polygon class="st1" points="17.5,31.8 17,33.5 15.2,33.5 16,34.1 16.6,34.6 16.1,36.3 17.5,35.3 19,36.3 18.4,34.6 19.1,34.1 
					19.9,33.5 18.1,33.5 				"/>
				<polygon class="st1" points="18.1,48.2 17.5,46.5 17,48.2 15.2,48.2 16.6,49.3 16.1,51 17.5,49.9 19,51 18.4,49.3 19.9,48.2 
									"/>
				<path class="st1" d="M2.6,36.3L2.6,36.3c0,0,0-0.1,0-0.1L2.6,36.3z"/>
				<path class="st1" d="M4.1,31.8L3.7,33c0.1-0.4,0.3-0.7,0.4-1.1L4.1,31.8z"/>
				<path class="st1" d="M5.5,36.3l-0.6-1.7l0.7-0.5l0.8-0.6H4.6l-0.5-1.6c-0.1,0.3-0.3,0.7-0.4,1.1l-0.2,0.6h0
					c-0.1,0.3-0.2,0.7-0.4,1l0,0l-0.5,1.6c0,0,0,0.1,0,0.1l1.5-1.1L5.5,36.3z"/>
				<polygon class="st1" points="4.6,48.2 4.1,46.5 3.5,48.2 1.7,48.2 3.1,49.3 2.6,51 4.1,49.9 5.5,51 4.9,49.3 6.4,48.2 				"/>
				<polygon class="st1" points="37.8,24.6 37.2,26.3 35.4,26.3 36.9,27.4 36.3,29.1 37.8,28 39.2,29.1 38.7,27.4 40.1,26.3 
					38.3,26.3 				"/>
				<polygon class="st1" points="38.2,41.4 37.6,39.6 37.1,41.4 35.3,41.4 36.7,42.4 36.2,44.1 37.6,43.1 39.1,44.1 38.5,42.4 
					40,41.4 				"/>
				<polygon class="st1" points="24.3,24.6 23.7,26.3 21.9,26.3 23.4,27.4 22.8,29.1 24.3,28 25.7,29.1 25.2,27.4 26.6,26.3 
					24.8,26.3 				"/>
				<polygon class="st1" points="24.7,41.4 24.1,39.6 23.6,41.4 21.8,41.4 23.2,42.4 22.7,44.1 24.1,43.1 25.6,44.1 25,42.4 
					26.5,41.4 				"/>
				<polygon class="st1" points="10.8,24.1 10.2,25.8 8.4,25.8 9.9,26.8 9.3,28.6 10.8,27.5 12.2,28.6 11.7,26.8 13.1,25.8 
					11.3,25.8 				"/>
				<polygon class="st1" points="11.2,40.8 10.7,39.1 10.1,40.8 8.3,40.8 9.8,41.9 9.2,43.6 10.7,42.5 12.1,43.6 11.6,41.9 13,40.8 
									"/>
				<polygon class="st1" points="44.5,16.4 44,18.1 42.2,18.1 43.6,19.2 43.1,20.9 44.5,19.9 46,20.9 45.4,19.2 46.9,18.1 
					45.1,18.1 				"/>
				<polygon class="st1" points="24.4,9.4 23.9,11.1 22.1,11.1 23.5,12.2 23,13.9 24.4,12.8 25.9,13.9 25.3,12.2 26.8,11.1 25,11.1 
									"/>
				<polygon class="st1" points="37.9,9.4 37.3,11.1 35.6,11.1 37,12.2 36.5,13.9 37.9,12.8 39.4,13.9 38.8,12.2 40.3,11.1 
					38.5,11.1 				"/>
				<polygon class="st1" points="44.5,1.4 44,3.1 42.2,3.1 43.6,4.2 43.1,5.9 44.5,4.8 46,5.9 45.4,4.2 46.9,3.1 45.1,3.1 				"/>
				<polygon class="st1" points="44.5,31.8 44,33.5 42.2,33.5 43,34.1 43.6,34.6 43.1,36.3 44.5,35.3 46,36.3 45.4,34.6 46.1,34.1 
					46.9,33.5 45.1,33.5 				"/>
				<polygon class="st1" points="45.1,48.2 44.5,46.5 44,48.2 42.2,48.2 43.6,49.3 43.1,51 44.5,49.9 46,51 45.4,49.3 46.9,48.2 
									"/>
			</g>
		</g>
	</g>
</g>
</svg>
